<?xml version="1.0" encoding="UTF-8" standalone="no"?>
<!-- Created with Inkscape (http://www.inkscape.org/) -->

<svg
   width="4mm"
   height="4mm"
   viewBox="0 0 4 4"
   version="1.1"
   id="svg1"
   inkscape:version="1.4.2 (f4327f4, 2025-05-13)"
   sodipodi:docname="system-j-file.svg"
   xmlns:inkscape="http://www.inkscape.org/namespaces/inkscape"
   xmlns:sodipodi="http://sodipodi.sourceforge.net/DTD/sodipodi-0.dtd"
   xmlns="http://www.w3.org/2000/svg"
   xmlns:svg="http://www.w3.org/2000/svg">
  <sodipodi:namedview
     id="namedview1"
     pagecolor="#ffffff"
     bordercolor="#999999"
     borderopacity="1"
     inkscape:showpageshadow="2"
     inkscape:pageopacity="0"
     inkscape:pagecheckerboard="0"
     inkscape:deskcolor="#d1d1d1"
     inkscape:document-units="mm"
     inkscape:zoom="47.493152"
     inkscape:cx="7.1273433"
     inkscape:cy="7.1694547"
     inkscape:window-width="1920"
     inkscape:window-height="1051"
     inkscape:window-x="-9"
     inkscape:window-y="-9"
     inkscape:window-maximized="1"
     inkscape:current-layer="layer1"
     showguides="false" />
  <defs
     id="defs1">
    <rect
       x="377.31754"
       y="354.40897"
       width="371.92728"
       height="409.65903"
       id="rect7" />
  </defs>
  <g
     inkscape:label="Layer 1"
     inkscape:groupmode="layer"
     id="layer1"
     transform="matrix(0.09839913,0,0,0.09839913,-5.9468334,-6.0323037)">
    <g
       inkscape:label="Rendered Gears"
       transform="matrix(0.76255676,0,0,0.76255676,80.761248,81.407002)"
       id="g7"
       style="display:inline;fill:#aca793;fill-opacity:1">
      <path
         id="path6"
         style="fill:#aca793;fill-opacity:1;stroke:#000000;stroke-width:0.264583"
         d="m -1.0454532,-23.558348 -1.5927988,3.518524 -0.1212625,1.247583 0.3123055,2.127009 -3.7659641,1.009155 -0.793122,-1.998236 -0.7288038,-1.019807 -3.1386221,-2.250729 -1.81088,1.045615 0.379901,3.843392 0.51878,1.141205 1.334023,1.685794 -2.756946,2.756946 -1.685794,-1.334023 -1.141205,-0.51878 -3.843392,-0.379901 -1.045615,1.81088 2.250729,3.1386221 1.019807,0.7288038 1.998236,0.793122 -1.009155,3.7659641 -2.127009,-0.3123055 -1.247583,0.1212625 -3.518524,1.5927988 v 2.090958 l 3.518524,1.5927988 1.247583,0.1212625 2.127009,-0.3123055 1.009155,3.7659641 -1.998236,0.7929854 -1.019807,0.7288038 -2.250729,3.1386221 1.045615,1.811017 3.843392,-0.379902 1.141205,-0.518916 1.685794,-1.333887 2.756946,2.756946 -1.334023,1.685794 -0.51878,1.141069 -0.379901,3.843528 1.81088,1.045479 3.1386221,-2.250729 0.7288038,-1.01967 0.793122,-1.998236 3.7659641,1.009018 -0.3123055,2.127009 0.1212625,1.247584 1.5927988,3.518523 h 2.090958 l 1.5927988,-3.518523 0.1212625,-1.247584 -0.3123055,-2.127009 3.7659641,-1.009018 0.7929854,1.998236 0.7288038,1.01967 3.1386221,2.250729 1.811017,-1.045479 -0.379902,-3.843528 -0.518916,-1.141069 -1.333887,-1.685794 2.756946,-2.756946 1.685794,1.333887 1.141069,0.518916 3.843528,0.379902 1.045479,-1.811017 -2.250729,-3.1386221 -1.01967,-0.7288038 -1.998236,-0.7929854 1.009018,-3.7659641 2.127009,0.3123055 1.247584,-0.1212625 3.518523,-1.5927988 v -2.090958 l -3.518523,-1.5927988 -1.247584,-0.1212625 -2.127009,0.3123055 -1.009018,-3.7659641 1.998236,-0.793122 1.01967,-0.7288038 2.250729,-3.1386221 -1.045479,-1.81088 -3.843528,0.379901 -1.141069,0.51878 -1.685794,1.334023 -2.756946,-2.756946 1.333887,-1.685794 0.518916,-1.141205 0.379902,-3.843392 -1.811017,-1.045615 -3.1386221,2.250729 -0.7288038,1.019807 -0.7929854,1.998236 -3.7659641,-1.009155 0.3123055,-2.127009 -0.1212625,-1.247583 -1.5927988,-3.518524 z M 2.5806014e-5,-8.5989573 A 8.598958,8.598958 0 0 1 8.5990089,2.5806014e-5 8.598958,8.598958 0 0 1 2.5806014e-5,8.5990089 8.598958,8.598958 0 0 1 -8.5989573,2.5806014e-5 8.598958,8.598958 0 0 1 2.5806014e-5,-8.5989573 Z" />
    </g>
    <circle
       style="display:inline;fill:#aca793;stroke:#aca793;stroke-width:1.30441"
       id="path1"
       cx="80.477951"
       cy="81.573013"
       r="11.433221" />
    <path
       style="fill:#4d4d4d;fill-opacity:1;stroke:#4d4d4d;stroke-width:1.48594;stroke-dasharray:none"
       d="m 74.552897,72.57502 c 0,0 13.462356,-0.153018 13.462356,0 0,0.153012 0,13.54195 0,13.54195 0,0 0.936001,5.0886 -7.385041,5.0886 -8.321041,0 -7.027292,-4.842091 -7.027292,-4.842091 h 3.001386 c 0,0 -0.897492,1.895717 4.038707,1.742705 4.936191,-0.153023 4.743877,-1.683183 4.743877,-1.683183 V 75.405821 H 74.488791 Z"
       id="path8" />
  </g>
</svg>
